=!HD DESI ROCKER RELEASES!=





Release Title:Kun fu panda 720p Brrip Ac3~Boniin
Release Date: 02 August 2009
Release Length: 1h 28mn
Storyline: It's the story about a lazy, irreverent slacker panda, 
named Po, who is the biggest fan of Kung Fu around...which doesn't exactly come in handy while 
working every day in his family's noodle shop. Unexpectedly chosen to fulfill an ancient prophecy, 
Po's dreams become reality when he joins the world of Kung Fu and studies alongside his idols, the 
legendary Furious Five -- Tigress, Crane, Mantis, Viper and Monkey -- under the leadership of 
their guru, Master Shifu. But before they know it, the vengeful and treacherous snow leopard Tai 
Lung is headed their way, and it's up to Po to defend everyone from the oncoming threat. Can he 
turn his dreams of becoming a Kung Fu master into reality? Po puts his heart - and his girth - 
into the task, and the unlikely hero ultimately finds that his greatest weaknesses turn out to 
be his greatest strengths.

 
Jack Black ... Po (voice)
Dustin Hoffman ... Shifu (voice)
Angelina Jolie ... Tigress (voice)
Ian McShane ... Tai Lung (voice)
Jackie Chan ... Monkey (voice)
Seth Rogen ... Mantis (voice)
Lucy Liu ... Viper (voice)
David Cross ... Crane (voice)
Randall Duk Kim ... Oogway (voice)
James Hong ... Mr. Ping (voice)
Dan Fogler ... Zeng (voice)
Michael Clarke Duncan ... Commander Vachir (voice)
Wayne Knight ... Gang Boss (voice)
Kyle Gass ... KG Shaw (voice)
JR Reed ... JR Shaw (voice)


INFO:

Title............................: Kun fu panda
Genre............................: Animation | Action | Comedy | Family
Directer.........................: Mark Osborne & John Stevenson
Writer...........................: Jonathan Aibel & Glenn Berger
IMDB.............................: http://www.imdb.com/title/tt0441773/
year.............................: 02 August 2009
User Rating......................: 7.7/10   67,332 votes
Awards...........................: Nominated for Oscar. Another 11 wins & 20 nominations
VIDEO Source.....................: Kung Fu Panda 2008 1080p Bluray Disc FULL DTS-
                                   HD ( 44.22 GB )
AUDIO source.....................: kung fu panda Vcd Audio                                                     
File size........................: 1.37 GiB
Run time.........................: 1h 28mn
Languages........................: Hindi
Ripper...........................: BONIIN[BOW]

 


Video
ID                               : 1
Format                           : Matroska,AVC
Format/Info                      : Advanced Video Codec
Format profile                   : Main@L4.1
Format settings, CABAC           : Yes
Format settings, ReFrames        : 4 frames
Muxing mode                      : Container profile=Unknown@4.1
Codec ID                         : V_MPEG4/ISO/AVC
Duration                         : 1h 28mn
Bit rate                         : 1 860 Kbps
Nominal bit rate                 : 1 826 Kbps
Overall bit rate                 : 2 225 Kbps
Width                            : 1 280 pixels
Height                           : 544 pixels
Display aspect ratio             : 2.35:1
Frame rate                       : 25.000 fps
Original frame rate              : 23.976 fps
Resolution                       : 8 bits
Colorimetry                      : 4:2:0
Scan type                        : Progressive
Bits/(Pixel*Frame)               : 0.107
Stream size                      : 1.15 GiB (84%) 
Encoding settings                : cabac=1 / ref=4 / deblock=1:0:0 / analyse=0x1:0x111 / me=umh / subme=9 / psy_rd=1.0:0.0 / mixed_ref=1 / me_range=16 / chroma_me=1 / trellis=2 / 8x8dct=0 / cqm=0 / deadzone=21,11 / chroma_qp_offset=-2 / threads=3 / nr=0 / decimate=1 / mbaff=0 / bframes=3 / b_pyramid=0 / b_adapt=2 / b_bias=0 / direct=1 / wpredb=1 / keyint=250 / keyint_min=25 / scenecut=40 / rc=2pass / bitrate=1826 / ratetol=1.0 / qcomp=0.60 / qpmin=10 / qpmax=51 / qpstep=4 / cplxblur=20.0 / qblur=0.5 / ip_ratio=1.40 / pb_ratio=1.30 / aq=1:1.00
Encoded date                     : UTC 2010-05-19 07:52:05
Writing application              : mkvmerge v3.3.0 ('Language') built on Mar 24 2010 14:59:24
Writing library                  : x264 core 68 r1183M f21daffl + ibebml v0.8.0 + 
                                   libmatroska v0.9.0



Audio
ID                               : 2
Format                           : AC-3
Format/Info                      : Audio Coding 3
Codec ID                         : A_AC3
Duration                         : 1h 28mn
Bit rate mode                    : Constant
Bit rate                         : 320 Kbps
Channel(s)                       : 2 channels
Channel positions                : Front: L R
Sampling rate                    : 48.0 KHz
Stream size                      : 202 MiB (14%)
Title                            : Boniin DOLBY PRO LOGIC~320kb/s~Hindi
Language                         : Hindi



Screenshots:  
http://img8.imageshack.us/img8/5238/kungfupanda012703230435.jpg  
http://img39.imageshack.us/img39/9367/kungfupanda008577230507.jpg  
http://img220.imageshack.us/img220/4181/kungfupanda093812230922.jpg  
http://img40.imageshack.us/img40/1236/kungfupanda032476230529.jpg
 
